<svg width="28" height="28" viewBox="0 0 28 28" fill="none" xmlns="http://www.w3.org/2000/svg">
<circle cx="14" cy="14" r="14" fill="#ED6C53"/>
<path d="M19.7875 16.8727C20.4055 15.995 20.7302 15.1194 20.8244 14.3632C20.9313 13.4938 20.7846 12.635 20.4641 11.8159C21.2099 12.9471 21.6414 14.1935 21.4885 15.4587C21.2978 17.0256 20.0075 19.1435 16.9972 20.6434C18.5872 19.4451 19.4565 18.0668 19.7875 16.8727ZM7.30672 13.0644C7.25226 17.0026 7.8388 19.4933 9.05378 20.4653C9.1669 20.5575 9.29468 20.6392 9.43084 20.7125C9.64242 21.0916 9.88751 21.3954 10.164 21.6174C10.6961 22.0448 11.4795 22.2773 12.4327 22.2961C10.7212 22.713 9.2444 22.6062 8.43162 21.9568C7.33395 21.077 6.80397 18.7099 6.85634 14.9225C6.89195 12.3563 7.13076 10.4647 7.57904 9.21416C7.41774 10.2783 7.32767 11.5561 7.30672 13.0644ZM10.4615 6.50768C10.3127 6.60195 10.1724 6.71716 10.0404 6.85123C9.46017 6.83866 8.95742 6.93293 8.5636 7.14241C8.83592 6.46998 9.17528 6.00703 9.58795 5.74727C9.90426 5.54827 10.3316 5.44772 10.8553 5.44772C12.1729 5.44772 13.9598 6.09501 15.6712 7.18221C13.5387 6.13062 11.5256 5.84154 10.4615 6.50768ZM8.68719 7.59907C8.95113 7.43358 9.2863 7.33932 9.67593 7.30789C8.86944 8.52916 8.46514 10.7748 8.41696 14.2165C8.38344 16.6381 8.59292 18.5109 9.04121 19.8201C8.14254 18.7727 7.71101 16.5061 7.75919 13.0707C7.79062 10.8607 7.97077 9.15131 8.30803 7.91957C8.42534 7.79179 8.55103 7.68496 8.68719 7.59907ZM20.3761 14.3066C20.3238 14.7381 20.1876 15.2116 19.9551 15.7017C19.9865 12.9178 17.5607 10.3118 15.1748 8.75121C13.6141 7.72895 12.0116 7.09004 10.6898 6.90779C10.6919 6.90569 10.6961 6.9036 10.6982 6.9015C11.0145 6.7025 11.4418 6.60195 11.9655 6.60195C13.3251 6.60195 15.1852 7.28904 16.9428 8.43908C17.544 8.8329 18.1452 9.29166 18.7087 9.80489C19.8336 11.1456 20.571 12.7104 20.3761 14.3066ZM15.0721 19.8662C12.9396 20.7586 10.9307 20.9345 9.74925 20.3647C9.12291 19.1561 8.82754 17.1011 8.86734 14.2228C8.91762 10.6156 9.368 8.34063 10.2415 7.3058C11.5382 7.38959 13.2476 8.03688 14.9297 9.13665C17.3471 10.7182 19.8105 13.3933 19.4733 16.1584C19.4523 16.326 19.4188 16.4978 19.3727 16.6779C18.5411 17.83 17.1606 18.9906 15.0721 19.8662ZM10.4426 21.2571C10.3484 21.1817 10.2604 21.0958 10.1745 20.9974C10.5536 21.0958 10.981 21.1461 11.4481 21.1461C12.5961 21.1461 13.9095 20.8507 15.246 20.2893C16.7752 19.6504 17.9441 18.8544 18.8092 18.0165C18.0677 19.2775 16.6893 20.5994 14.4625 21.5923C12.7427 22.0154 11.2575 21.9086 10.4426 21.2571ZM19.0208 9.47182C18.1703 8.46213 17.1208 7.58231 16.0776 6.89941C13.4298 5.16701 10.6647 4.53439 9.35333 5.35764C8.71861 5.75565 8.2389 6.52235 7.90164 7.69124C6.93594 8.81824 6.45623 11.1518 6.40386 14.9183C6.3494 18.8565 6.93594 21.3472 8.15092 22.3192C8.70604 22.7654 9.53349 23 10.5453 23C11.6932 23 13.0067 22.7046 14.3431 22.1453C14.4332 22.1076 14.5212 22.0678 14.6092 22.0301C15.179 21.8898 15.7655 21.6928 16.3562 21.4457C20.129 19.8662 21.7126 17.3482 21.9347 15.5195C22.2091 13.2718 20.8098 11.1099 19.0208 9.47182Z" fill="white"/>
</svg>
